<svg width="22" height="22" viewBox="0 0 25 25" fill="none" xmlns="http://www.w3.org/2000/svg">
<g id="Frame 1" opacity="1">
<g id="Group">
<path id="Vector" d="M5.81853 0C6.55777 0 7.29701 0 8.02432 0C10.0155 0.0119232 11.5894 1.58579 11.6013 3.58889C11.6132 5.06737 11.6132 6.54585 11.6013 8.02432C11.5894 10.0274 10.0155 11.6013 8.02432 11.6132C6.54584 11.6251 5.06737 11.6251 3.58889 11.6132C1.58579 11.6013 0.0119232 10.0155 0 8.0124C0 6.54585 0 5.07929 0 3.61273C0.0119232 1.58579 1.58579 0.0119232 3.58889 0C4.34005 0 5.07929 0 5.81853 0ZM5.79468 9.82473C6.53392 9.82473 7.26124 9.82473 8.00048 9.82473C9.04972 9.81281 9.81281 9.04972 9.81281 7.98855C9.81281 6.53392 9.81281 5.09121 9.81281 3.63658C9.81281 2.56349 9.04972 1.78848 7.97663 1.78848C6.522 1.78848 5.07929 1.78848 3.62466 1.78848C2.55157 1.78848 1.78848 2.56349 1.78848 3.63658C1.78848 5.07929 1.78848 6.522 1.78848 7.95279C1.78848 9.04972 2.55157 9.81281 3.6485 9.81281C4.3639 9.82473 5.07929 9.82473 5.79468 9.82473Z" fill="white"/>
<path id="Vector_2" d="M13.3896 5.78276C13.3896 5.04352 13.3896 4.3162 13.3896 3.57696C13.4016 1.58579 14.9754 0.0119232 16.9785 0C18.457 0 19.9355 0 21.4021 0C23.4051 0.0119232 24.979 1.58579 24.9909 3.57696C25.0029 5.05544 25.0029 6.53392 24.9909 8.0124C24.979 10.0274 23.4051 11.5894 21.3901 11.6013C19.9236 11.6013 18.457 11.6013 16.9905 11.6013C14.9754 11.5894 13.4016 10.0155 13.3896 8.0124C13.3896 7.27316 13.3896 6.522 13.3896 5.78276ZM23.2025 5.81853C23.2025 5.09121 23.2025 4.3639 23.2025 3.6485C23.2025 3.62466 23.2025 3.61273 23.2025 3.58889C23.1905 2.56349 22.4155 1.80041 21.3901 1.78848C19.9236 1.77656 18.457 1.78848 16.9905 1.78848C15.9531 1.78848 15.1781 2.56349 15.1781 3.60081C15.1781 5.06737 15.1662 6.53392 15.1781 8.00048C15.1781 9.0378 15.9531 9.81281 17.0024 9.81281C18.457 9.81281 19.9236 9.81281 21.3782 9.81281C22.4394 9.81281 23.2025 9.0378 23.2144 7.97663C23.2144 7.26124 23.2025 6.54585 23.2025 5.81853Z" fill="white"/>
<path id="Vector_3" d="M11.6013 19.1846C11.6013 19.9238 11.6013 20.675 11.6013 21.4142C11.5894 23.4054 10.0155 24.9792 8.02432 24.9912C6.54585 25.0031 5.06737 25.0031 3.58889 24.9912C1.57386 24.9792 0.0119232 23.4054 0 21.3903C0 19.9238 0 18.4572 0 16.9907C0.0119232 14.9757 1.58579 13.4018 3.58889 13.4018C5.05544 13.4018 6.522 13.4018 7.98855 13.4018C10.0155 13.4137 11.5774 14.9757 11.5894 17.0145C11.6013 17.7299 11.6013 18.4572 11.6013 19.1846ZM5.79468 23.2027C6.53392 23.2027 7.26124 23.2027 8.00048 23.2027C9.06164 23.1908 9.82473 22.4277 9.82473 21.3665C9.82473 19.9119 9.82473 18.4692 9.82473 17.0145C9.82473 15.9414 9.06164 15.1664 7.98855 15.1664C6.53392 15.1664 5.09121 15.1664 3.63658 15.1664C2.56349 15.1664 1.80041 15.9414 1.80041 17.0145C1.80041 18.4572 1.80041 19.8999 1.80041 21.3307C1.80041 22.4277 2.56349 23.1908 3.66043 23.1908C4.3639 23.2146 5.07929 23.2027 5.79468 23.2027Z" fill="white"/>
<path id="Vector_4" d="M13.3896 19.1846C13.3896 18.4453 13.3896 17.718 13.3896 16.9788C13.4016 14.9876 14.9754 13.4018 16.9666 13.3899C18.457 13.378 19.9355 13.378 21.4259 13.3899C23.4051 13.4018 24.979 14.9757 24.9909 16.9549C25.0029 18.4453 25.0029 19.9238 24.9909 21.4142C24.979 23.3935 23.4051 24.9792 21.4378 24.9912C19.9474 25.0031 18.4451 25.0031 16.9428 24.9912C14.9754 24.9792 13.4016 23.4054 13.3896 21.4381C13.3896 20.6869 13.3896 19.9357 13.3896 19.1846ZM19.1605 23.2027C19.8878 23.2027 20.6151 23.2027 21.3305 23.2027C21.3544 23.2027 21.3663 23.2027 21.3901 23.2027C22.4274 23.1908 23.2025 22.4277 23.2025 21.3784C23.2144 19.9238 23.2025 18.4572 23.2025 17.0026C23.2025 15.9415 22.4274 15.1664 21.3782 15.1664C19.9236 15.1664 18.457 15.1664 17.0024 15.1664C15.9412 15.1664 15.1781 15.9415 15.1781 17.0026C15.1781 18.4572 15.1781 19.9 15.1781 21.3546C15.1781 22.4277 15.9412 23.2027 17.0143 23.2027C17.7297 23.2146 18.4451 23.2027 19.1605 23.2027Z" fill="white"/>
</g>
</g>
</svg>
