<svg width="25" height="24" viewBox="0 0 25 24" fill="none" xmlns="http://www.w3.org/2000/svg">
<g id="Frame" clip-path="url(#clip0_2_1070)">
<g id="Group">
<path id="Vector" d="M0 9.98538C0.085153 9.59843 0.144009 9.20397 0.259842 8.82704C0.621116 7.64805 1.31361 6.69759 2.29475 5.95188C4.37724 4.36841 6.45535 2.7793 8.53659 1.19395C10.6134 -0.388264 13.3471 -0.398282 15.4334 1.16891C16.0326 1.61909 16.6267 2.07679 17.2234 2.53073C17.2829 2.57581 17.3449 2.61776 17.4407 2.68601C17.4407 2.25899 17.4301 1.87142 17.4432 1.48448C17.4651 0.83268 18.0543 0.421315 18.6736 0.614162C19.0486 0.730621 19.3066 1.05808 19.3103 1.47759C19.3197 2.52447 19.3197 3.57135 19.3097 4.61761C19.3059 4.99203 19.1137 5.27253 18.7744 5.43407C18.4137 5.60563 18.0756 5.53864 17.7644 5.30133C16.8641 4.6151 15.9674 3.92261 15.0614 3.24389C14.6188 2.91204 14.1886 2.542 13.699 2.29844C12.2902 1.5978 10.9234 1.74933 9.67113 2.69227C7.57486 4.27011 5.49299 5.86798 3.40925 7.46272C2.38616 8.24537 1.8765 9.28787 1.8765 10.5764C1.87524 13.1542 1.87462 15.7319 1.8765 18.3097C1.87838 20.4717 3.53135 22.1234 5.69085 22.1241C9.90217 22.1247 14.1129 22.1253 18.3242 22.1241C20.4687 22.1234 22.1248 20.4692 22.1273 18.3222C22.1304 15.7288 22.131 13.1354 22.1266 10.542C22.1241 9.31354 21.6527 8.29985 20.6972 7.51719C20.2414 7.14402 20.1675 6.578 20.5162 6.15224C20.8543 5.73962 21.4272 5.69517 21.8749 6.06082C23.2368 7.17407 23.9699 8.61917 23.9925 10.3711C24.0269 13.0809 24.0194 15.7921 23.9969 18.5026C23.9737 21.2788 21.7892 23.6556 19.0273 23.9586C18.9666 23.9655 18.9071 23.9862 18.847 24.0006C14.2838 24.0006 9.72122 24.0006 5.15802 24.0006C5.09791 23.9862 5.03843 23.9655 4.97769 23.9586C2.63661 23.7019 0.646161 21.9187 0.142757 19.6221C0.0895359 19.3798 0.0482116 19.1349 0.00125225 18.8914C0 15.9223 0 12.9538 0 9.98538Z" fill="#0085FF"/>
<path id="Vector_2" d="M10.1295 10.8295C10.7687 10.8307 11.2972 11.3542 11.2972 11.9853C11.2972 12.6484 10.7913 13.1618 10.1338 13.1668C9.46765 13.1718 8.9511 12.6502 8.95485 11.9778C8.95924 11.346 9.48894 10.8276 10.1295 10.8295Z" fill="#0085FF"/>
<path id="Vector_3" d="M13.8799 10.8326C14.5386 10.8345 15.0533 11.3529 15.047 12.0085C15.0401 12.6559 14.5317 13.1618 13.8843 13.1668C13.2269 13.1712 12.7072 12.6571 12.7059 12.001C12.7047 11.3423 13.2194 10.8307 13.8799 10.8326Z" fill="#0085FF"/>
<path id="Vector_4" d="M10.122 14.5825C10.7819 14.5806 11.2985 15.0946 11.2966 15.7508C11.2947 16.4064 10.7738 16.9217 10.1176 16.916C9.46829 16.911 8.96113 16.4051 8.95549 15.7577C8.94986 15.1003 9.46203 14.5843 10.122 14.5825Z" fill="#0085FF"/>
<path id="Vector_5" d="M13.8705 14.5825C14.5305 14.5793 15.0476 15.0921 15.047 15.7489C15.0464 16.4045 14.5261 16.9204 13.8705 16.9167C13.2212 16.9129 12.7128 16.4082 12.7059 15.7608C12.6991 15.1028 13.2106 14.5856 13.8705 14.5825Z" fill="#0085FF"/>
</g>
</g>
<defs>
<clipPath id="clip0_2_1070">
<rect width="24.015" height="24" fill="white"/>
</clipPath>
</defs>
</svg>
