<svg xmlns="http://www.w3.org/2000/svg" width="22" height="22" viewBox="0 0 27 26" fill="none">
    <g clip-path="url(#clip0_2_703)">
        <path d="M13.0304 2.40648e-07C20.2155 0.0013674 26.0609 5.83915 26.0561 13.0085C26.0513 20.1766 20.1937 26.0103 13.0127 26C5.82754 25.9891 -0.00955838 20.1485 1.17511e-05 12.9778C0.00958188 5.82274 5.85693 -0.00136692 13.0304 2.40648e-07ZM2.60992 12.9757C2.58873 18.7021 7.24665 23.3716 13.0038 23.3956C18.7404 23.4195 23.425 18.7663 23.4462 13.0236C23.4673 7.29518 18.8115 2.62837 13.0523 2.60444C7.31569 2.58052 2.6318 7.23229 2.60992 12.9757Z" fill="white" stroke="" stroke-width="0"/>
        <path d="M13.0378 18.4991C16.0731 18.4945 18.5439 16.13302 18.6422 12.961C18.5405 9.5718 15.3672 7.56173 13.0309 7.49919L13 18.4991C9.99419 18.5038 7.51106 16 7.51453 12.9919M13 18.4991L7.51453 12.9919C7.518 9.96996 9.99542 7.49912 13.0305 7.49949L7" stroke="white" stroke-width="1"/>
    </g>
    <defs>
        <clipPath id="clip0_2_703">
            <rect width="26.0567" height="26" fill="white"/>
        </clipPath>
    </defs>
</svg>
