<svg width="22" height="22" viewBox="0 0 25 25" fill="none" xmlns="http://www.w3.org/2000/svg">
<g id="Frame" opacity="1" clip-path="url(#clip0_2_720)">
<g id="Group">
<path id="Vector" d="M22.915 14.8687C23.773 9.41221 21.3212 5.12422 17.2451 3.05045C11.0454 -0.102736 3.43332 3.6339 2.12036 10.4571C1.84108 11.9081 1.90528 13.3607 2.07702 14.8735C2.74635 14.3824 3.50956 14.217 4.2487 13.9923C5.61784 13.5766 6.79678 14.2018 7.2133 15.5621C7.82243 17.55 8.42915 19.5387 9.03426 21.5282C9.45159 22.9013 8.84165 24.0747 7.47493 24.496C6.78073 24.7103 6.10258 24.9992 5.353 24.9992C3.8362 24.9992 2.47107 24.0739 2.00239 22.6317C1.248 20.3115 0.505647 17.9858 0.207101 15.5484C-0.0842217 13.1649 -0.176514 10.787 0.670168 8.48768C2.3539 3.9172 5.58975 1.0762 10.3841 0.20223C17.0196 -1.0072 23.3356 3.33776 24.7448 9.96034C25.0538 11.4145 25.0321 12.8824 24.9222 14.3551C24.7079 17.2137 23.9014 19.9359 23.0025 22.6325C22.399 24.443 20.4753 25.3876 18.6463 24.8379C18.1873 24.6998 17.725 24.565 17.2748 24.4005C16.2122 24.0113 15.587 22.8684 15.904 21.7834C16.5348 19.6246 17.1889 17.4721 17.8759 15.331C18.233 14.2162 19.4224 13.6207 20.558 13.9369C21.3629 14.16 22.1919 14.3342 22.915 14.8687Z" fill="white"/>
</g>
</g>
<defs>
<clipPath id="clip0_2_720">
<rect width="24.9968" height="25" fill="white"/>
</clipPath>
</defs>
</svg>
