<svg width="22" height="22" viewBox="0 0 25 25" fill="none" xmlns="http://www.w3.org/2000/svg">
<g id="Frame" opacity="1" clip-path="url(#clip0_116_367)">
<g id="Group">
<path id="Vector" d="M12.5249 0.0160284C13.9789 0.0160284 15.433 -0.00509753 16.8863 0.0225847C18.0803 0.0451676 19.256 0.225102 20.3881 0.625767C22.6573 1.42855 24.0065 3.05598 24.598 5.35288C24.8573 6.36037 24.9841 7.38825 24.987 8.42634C24.9936 11.2434 25.0016 14.0604 24.9753 16.8767C24.9637 18.0882 24.7692 19.2822 24.3569 20.4302C23.5781 22.5982 22.0374 23.9342 19.8417 24.5491C18.6434 24.8849 17.4166 25 16.176 24.9985C13.4865 24.9956 10.7962 25.0109 8.10737 24.9781C6.74803 24.9614 5.41345 24.7334 4.15027 24.1965C2.19867 23.366 1.02071 21.8704 0.452499 19.8591C0.149451 18.7861 0.0103114 17.6875 0.00666896 16.5759C-0.00134432 13.7588 -0.00790065 10.9418 0.0175962 8.12548C0.0292519 6.91328 0.223756 5.72003 0.636076 4.57195C1.41482 2.40399 2.95847 1.07087 5.15193 0.453845C6.43114 0.0947043 7.74095 -0.00291209 9.06314 1.82925e-06C10.2171 0.00291575 11.371 0.00073031 12.5256 0.00073031C12.5249 0.00582968 12.5249 0.010929 12.5249 0.0160284ZM12.4987 1.76001C12.4987 1.75491 12.4987 1.75054 12.4987 1.74544C11.3535 1.74544 10.2083 1.7469 9.06314 1.74471C7.89684 1.74326 6.74074 1.82412 5.60941 2.13736C3.88219 2.61598 2.72682 3.68393 2.19357 5.40897C1.9182 6.30063 1.76886 7.21706 1.76231 8.14514C1.74264 10.9534 1.74555 13.7617 1.75211 16.5693C1.75429 17.5258 1.87741 18.4706 2.13456 19.3958C2.58986 21.0327 3.57914 22.1779 5.20438 22.7373C6.16597 23.0688 7.16326 23.2283 8.17439 23.2364C10.837 23.2582 13.4996 23.2502 16.1629 23.2538C17.193 23.2553 18.2129 23.1657 19.2145 22.9136C21.0678 22.4481 22.3018 21.3314 22.8372 19.4767C23.0878 18.6076 23.2277 17.7174 23.2328 16.8163C23.2503 14.0356 23.2488 11.2543 23.2423 8.47369C23.2401 7.50772 23.1192 6.55414 22.862 5.6195C22.3769 3.85876 21.2805 2.69902 19.5176 2.17597C18.6397 1.91591 17.7423 1.77968 16.8331 1.76584C15.3885 1.74326 13.9432 1.76001 12.4987 1.76001Z" fill="white"/>
<path id="Vector_2" d="M10.8363 13.058C10.185 13.7129 9.55124 14.3503 8.91746 14.987C8.58382 15.3221 8.25309 15.6587 7.91434 15.988C7.53116 16.3609 6.99718 16.3733 6.64824 16.0251C6.29493 15.6725 6.30003 15.1415 6.67957 14.7597C7.8903 13.5417 9.10395 12.3273 10.322 11.1166C10.7904 10.6511 11.3797 10.7174 11.7556 11.2718C12.1621 11.8713 12.5613 12.476 12.9511 13.0595C13.8172 12.1911 14.6717 11.3344 15.5204 10.4843C15.4366 10.4719 15.3208 10.4624 15.2086 10.4362C14.7934 10.3408 14.4991 9.94376 14.534 9.53362C14.5719 9.08925 14.907 8.74249 15.3499 8.7323C16.1491 8.71408 16.949 8.7068 17.7481 8.71627C18.2566 8.7221 18.6033 9.10309 18.6048 9.61449C18.607 10.3415 18.6063 11.0685 18.6048 11.7948C18.6041 12.3856 18.2675 12.7754 17.7525 12.7848C17.2302 12.7943 16.8819 12.4242 16.8586 11.8349C16.8579 11.8167 16.8535 11.7992 16.8433 11.7307C16.7581 11.8109 16.6896 11.872 16.6255 11.9362C15.6166 12.9444 14.6083 13.9533 13.5987 14.9615C13.0152 15.5436 12.4681 15.4853 12.0069 14.7925C11.6748 14.2935 11.3433 13.7945 11.0097 13.2962C10.9608 13.2227 10.9055 13.1527 10.8363 13.058Z" fill="white"/>
</g>
</g>
<defs>
<clipPath id="clip0_116_367">
<rect width="24.9934" height="25" fill="white"/>
</clipPath>
</defs>
</svg>
