<svg width="22" height="22" viewBox="0 0 26 25" fill="none" xmlns="http://www.w3.org/2000/svg">
<g id="Frame" opacity="1" clip-path="url(#clip0_2_715)">
<g id="Group">
<path id="Vector" d="M0.0117466 12.4909C0.0117466 11.0281 -0.00936885 9.56531 0.0182997 8.10325C0.0415995 6.90039 0.224358 5.71647 0.632105 4.57696C1.40828 2.40935 2.94825 1.07106 5.14135 0.452889C6.34785 0.112857 7.58419 -0.00145779 8.83292 -1.5479e-06C11.5131 0.00363905 14.1941 -0.00728275 16.8743 0.0189296C18.0487 0.0305795 19.2064 0.216978 20.3241 0.601426C22.5441 1.36595 23.9137 2.91685 24.5421 5.15436C24.8232 6.15625 24.9651 7.18217 24.9768 8.21974C24.9972 10.0182 24.9921 11.8174 24.9921 13.6158C24.9921 14.0564 24.7394 14.3942 24.3593 14.4969C23.9815 14.5988 23.5526 14.4401 23.3808 14.0877C23.2934 13.9085 23.2562 13.6887 23.2548 13.4862C23.241 11.7147 23.2519 9.94321 23.23 8.17169C23.2184 7.27101 23.0837 6.38124 22.8318 5.5126C22.2944 3.6588 21.0588 2.54551 19.2057 2.08169C18.2038 1.83049 17.1837 1.74166 16.1542 1.74312C13.4922 1.74603 10.8294 1.74021 8.16742 1.76059C7.2296 1.76787 6.30489 1.91568 5.40493 2.1931C3.69167 2.72025 2.62133 3.86559 2.13931 5.57885C1.87428 6.52031 1.75268 7.48362 1.7505 8.45857C1.74467 11.2473 1.74176 14.0367 1.76069 16.8254C1.76724 17.753 1.91432 18.6683 2.18664 19.5609C2.71598 21.299 3.87442 22.3729 5.61172 22.8542C6.75195 23.1702 7.91694 23.2481 9.09213 23.246C10.5826 23.2438 12.0723 23.243 13.5628 23.2467C14.1533 23.2481 14.5399 23.6224 14.5224 24.1583C14.5079 24.5966 14.173 24.9476 13.7339 24.984C13.6888 24.9876 13.6429 24.9891 13.5977 24.9891C11.7621 24.984 9.92656 25.0022 8.09169 24.9658C6.74176 24.9388 5.41585 24.7211 4.16057 24.1889C2.19902 23.3566 1.01582 21.8552 0.448619 19.8333C0.137711 18.7243 0.0102904 17.5892 0.00300918 16.4409C-0.00500013 15.1238 0.000824824 13.8066 0.000824824 12.4894C0.00519354 12.4909 0.00883414 12.4909 0.0117466 12.4909Z" fill="white"/>
<path id="Vector_2" d="M16.2335 23.0355C16.2859 22.7137 16.326 22.3897 16.3951 22.0715C16.4483 21.8247 16.3951 21.6288 16.2219 21.4504C16.0194 21.2422 15.8068 21.0405 15.6313 20.8104C14.6098 19.4758 15.1522 17.9634 16.7876 17.5666C16.8582 17.5499 16.9296 17.5208 17.0002 17.5222C17.5849 17.5397 17.8492 17.1858 18.0764 16.7009C18.2569 16.3143 18.5125 15.9385 18.8147 15.6386C19.5319 14.9257 20.5629 14.9112 21.2801 15.6247C21.6252 15.9677 21.8946 16.4111 22.1109 16.8516C22.3097 17.2564 22.5616 17.4545 23.0079 17.5178C23.3676 17.5688 23.7353 17.6955 24.0542 17.871C24.9345 18.3552 25.2615 19.3294 24.8159 20.2294C24.6076 20.6502 24.2756 21.0186 23.9581 21.3732C23.7419 21.615 23.6829 21.8392 23.7266 22.1581C23.7899 22.6205 23.8525 23.1047 23.7819 23.5583C23.6174 24.6119 22.7101 25.1973 21.6755 24.9396C21.2517 24.834 20.8461 24.6294 20.4544 24.427C20.1741 24.2821 19.9447 24.2748 19.6644 24.4248C19.2989 24.6199 18.921 24.8165 18.5234 24.9214C17.3133 25.2417 16.3442 24.5114 16.2648 23.2576C16.2604 23.1855 16.2641 23.1127 16.2641 23.0399C16.2539 23.0384 16.2437 23.037 16.2335 23.0355ZM20.0583 16.7999C19.9222 16.9921 19.818 17.1166 19.7394 17.2557C19.6236 17.4603 19.5268 17.6758 19.4205 17.8863C19.0666 18.5874 18.5118 19.0243 17.7334 19.1663C17.5463 19.2005 17.3555 19.2216 17.172 19.2697C16.824 19.3607 16.7854 19.475 17.0097 19.7495C17.1356 19.9039 17.2805 20.043 17.4218 20.1835C18.0735 20.8322 18.2977 21.599 18.0866 22.4975C18.032 22.7312 18.0174 22.9736 17.9846 23.2125C18.0087 23.2329 18.0327 23.2532 18.0567 23.2744C18.265 23.1782 18.4863 23.104 18.6785 22.9831C19.6032 22.4006 20.5163 22.4013 21.4388 22.9875C21.6245 23.1054 21.8408 23.1753 22.1247 23.3057C22.0847 22.9722 22.0767 22.7203 22.0213 22.48C21.8153 21.5902 22.0424 20.8352 22.6832 20.1915C22.8616 20.0124 23.0269 19.8187 23.1856 19.6221C23.2883 19.4947 23.254 19.3767 23.0946 19.3294C22.9133 19.2748 22.7283 19.226 22.5412 19.1991C21.765 19.0884 21.1636 18.7149 20.769 18.0326C20.6328 17.7974 20.5309 17.5433 20.3991 17.306C20.3139 17.1501 20.2018 17.0096 20.0583 16.7999Z" fill="white"/>
<path id="Vector_3" d="M10.6284 10.4718C11.2546 10.474 11.6776 10.6386 12.0533 10.9335C12.7101 11.449 13.3654 11.9667 14.0229 12.4814C14.3047 12.7021 14.4292 12.686 14.6527 12.3984C15.4988 11.3084 16.3456 10.2192 17.1881 9.12699C17.3577 8.90782 17.5623 8.75637 17.8426 8.7338C18.2001 8.70541 18.4863 8.83938 18.6705 9.14883C18.8656 9.47794 18.8467 9.81288 18.621 10.1187C18.3195 10.5272 18.0014 10.9247 17.6905 11.3266C17.1232 12.0584 16.559 12.7923 15.9881 13.5212C15.2127 14.5129 13.977 14.66 12.9817 13.8823C12.338 13.3792 11.698 12.8717 11.0544 12.3686C10.7617 12.1399 10.659 12.1545 10.4296 12.4509C9.55371 13.586 8.67997 14.7233 7.80186 15.8577C7.53391 16.2043 7.1815 16.331 6.82545 16.2262C6.21601 16.0463 5.99903 15.3524 6.40095 14.8231C7.08757 13.9195 7.78438 13.0246 8.47682 12.1254C8.704 11.8305 8.9268 11.5327 9.16053 11.2429C9.5741 10.7318 10.1151 10.4798 10.6284 10.4718Z" fill="white"/>
</g>
</g>
<defs>
<clipPath id="clip0_2_715">
<rect width="25.0138" height="25" fill="white"/>
</clipPath>
</defs>
</svg>
