<svg width="22" height="22" viewBox="0 0 30 25" fill="none" xmlns="http://www.w3.org/2000/svg">
<g id="Frame" opacity="1" clip-path="url(#clip0_2_711)">
<g id="Group">
<path id="Vector" d="M13.8374 24.9856C11.6738 24.9856 9.50926 25.0228 7.34731 24.9746C5.27335 24.9289 3.44648 24.2139 1.99869 22.6815C0.726899 21.3361 0.0626583 19.6945 0.0321963 17.8693C-0.0270354 14.2926 0.0135806 10.7141 0.0169653 7.13655C0.0169653 6.93685 0.0533505 6.73801 0.0745046 6.53831C0.431587 3.21118 2.89563 0.636297 6.21429 0.148905C6.80661 0.0617495 7.41077 0.0152104 8.00901 0.0143642C12.0935 0.00505636 16.1779 -0.0160978 20.2624 0.0245182C24.3011 0.0651342 27.2542 2.82025 27.635 6.84039C27.6942 7.46909 27.6672 8.10541 27.7002 8.73665C27.7061 8.8475 27.7848 8.99389 27.8753 9.05396C28.6309 9.54897 29.0346 10.2318 29.0371 11.1406C29.0396 12.0375 29.0371 12.9345 29.038 13.8323C29.0396 14.7529 28.6411 15.4476 27.8745 15.9511C27.7789 16.0137 27.6993 16.1812 27.6993 16.2988C27.7044 17.4192 27.679 18.5327 27.3795 19.626C26.5798 22.5419 24.1556 24.6099 21.1458 24.9171C20.6643 24.9661 20.1777 24.9907 19.6937 24.9924C17.7416 25.0008 15.7887 24.9957 13.8366 24.9957C13.8374 24.9915 13.8374 24.989 13.8374 24.9856ZM25.6601 8.70365C25.6601 8.24588 25.6736 7.82533 25.6575 7.40648C25.5407 4.25366 23.3636 2.07901 20.209 2.05109C16.1669 2.0147 12.1248 2.03501 8.08263 2.03924C7.61977 2.04009 7.15184 2.05532 6.69491 2.12301C4.69711 2.41579 3.22817 3.42696 2.45308 5.33591C2.12307 6.14823 2.02153 7.0037 2.02323 7.87695C2.0283 10.9587 2.02492 14.0404 2.02577 17.1222C2.02577 17.354 2.02323 17.5876 2.04353 17.8186C2.24238 20.022 3.22817 21.6838 5.34274 22.5469C6.15421 22.8778 7.01138 22.9726 7.88462 22.9717C11.8531 22.9666 15.8217 22.9717 19.7893 22.9666C20.1887 22.9658 20.5924 22.948 20.9875 22.8913C24.4551 22.3946 25.963 19.5642 25.622 16.3014C25.1194 16.3014 24.6117 16.3344 24.1107 16.2921C23.6225 16.2515 23.1182 16.1998 22.6604 16.0391C20.9376 15.4341 19.8274 13.8585 20.121 11.9394C20.4172 9.99829 22.0029 8.71127 23.9753 8.70534C24.5236 8.70196 25.0711 8.70365 25.6601 8.70365ZM27.0122 12.5148C27.0122 12.1145 27.0131 11.7143 27.0122 11.3141C27.0105 10.836 26.9352 10.7573 26.4656 10.7565C25.6541 10.7539 24.8427 10.7505 24.032 10.759C23.8129 10.7615 23.5861 10.7759 23.3771 10.8351C22.5961 11.0568 22.0418 11.8624 22.1222 12.629C22.2068 13.4396 22.8956 14.1623 23.7223 14.2063C24.6887 14.2579 25.6592 14.2384 26.6281 14.2427C26.8819 14.2435 27.0122 14.1005 27.0114 13.8424C27.0105 13.3999 27.0114 12.9573 27.0122 12.5148Z" fill="white"/>
<path id="Vector_2" d="M11.859 7.43442C13.157 7.43442 14.4551 7.43358 15.7531 7.43527C16.4249 7.43612 16.8776 7.8482 16.8751 8.45236C16.8734 9.05483 16.4216 9.46099 15.7446 9.46099C13.1063 9.46184 10.4679 9.46269 7.82958 9.46015C7.24403 9.4593 6.82348 9.09799 6.75494 8.55306C6.69317 8.06397 7.02487 7.58843 7.52496 7.46658C7.64596 7.43696 7.77542 7.43612 7.9015 7.43527C9.22067 7.43358 10.5398 7.43442 11.859 7.43442Z" fill="white"/>
</g>
</g>
<defs>
<clipPath id="clip0_2_711">
<rect width="29.0396" height="25" fill="white"/>
</clipPath>
</defs>
</svg>
