<svg width="50" height="50" viewBox="0 0 50 50" fill="none" xmlns="http://www.w3.org/2000/svg">
<g id="Group 1">
<rect id="image 4" width="50" height="50" rx="25" fill="white"/>
<g id="Group">
<path id="Vector" d="M24.056 10C24.6804 10 25.3055 10 25.9299 10C26.0152 10.0172 26.0989 10.0376 26.185 10.0501C26.8594 10.1495 27.5424 10.2075 28.2075 10.3516C37.3038 12.3168 42.4411 22.1879 38.842 30.771C36.0308 37.4757 28.979 41.1659 21.8363 39.6696C15.9111 38.4286 11.2495 33.5811 10.2269 27.5897C10.1338 27.0432 10.0751 26.4912 10 25.9415C10 25.3167 10 24.6911 10 24.0663C10.0955 23.4015 10.1674 22.7329 10.2903 22.0736C11.4029 16.1018 16.3923 11.2168 22.3801 10.231C22.9364 10.1394 23.4974 10.0759 24.056 10ZM24.9918 36.4805C31.2949 36.4828 36.44 31.341 36.4612 25.02C36.4823 18.713 31.3113 13.5297 24.9949 13.5273C18.6926 13.525 13.5451 18.6676 13.5248 24.9879C13.5052 31.294 18.6777 36.4781 24.9918 36.4805Z" fill="#2E9BFF"/>
<path id="Vector_2" d="M34.6983 25.2486C34.5262 30.6316 30.0602 34.8848 24.7555 34.7172C19.3654 34.5465 15.1201 30.0757 15.2875 24.7444C15.4565 19.3621 19.9436 15.1144 25.2742 15.2922C30.6282 15.4707 34.8681 19.9494 34.6983 25.2486ZM29.2778 25.0239C27.8382 23.5824 26.393 22.137 24.9871 20.7284C23.5701 22.1464 22.1258 23.5918 20.7065 25.0129C22.1266 26.4333 23.5717 27.8786 24.9988 29.306C26.422 27.881 27.8671 26.4348 29.2778 25.0239Z" fill="#2E9BFF"/>
</g>
</g>
</svg>
